<?xml version="1.0" encoding="UTF-8"?>
<svg id="Layer_1" xmlns="http://www.w3.org/2000/svg" width="512" height="512" xmlns:xlink="http://www.w3.org/1999/xlink" version="1.1" viewBox="0 0 512 512">
  <!-- Generator: Adobe Illustrator 29.3.1, SVG Export Plug-In . SVG Version: 2.1.0 Build 151)  -->
  <defs>
    <style>
      .st0 {
        stroke: #666;
        stroke-width: 8px;
      }

      .st0, .st1 {
        fill: none;
        stroke-miterlimit: 10;
      }

      .st1 {
        stroke: blue;
        stroke-width: 5px;
      }

      .st2 {
        fill: #e2eefb;
      }

      .st3 {
        fill: #7ebcf2;
      }

      .st4 {
        fill: #1a80d9;
      }

      .st5 {
        fill: red;
      }

      .st5, .st6, .st7 {
        fill-rule: evenodd;
      }

      .st6 {
        fill: #fcfcfc;
      }

      .st8 {
        fill: #fff;
      }

      .st7 {
        fill: #333;
      }
    </style>
  </defs>
  <g>
    <circle class="st8" cx="258.4" cy="240.8" r="213.9"/>
    <circle class="st2" cx="258.6" cy="240.9" r="202.4"/>
    <circle class="st8" cx="259" cy="236.8" r="143.2"/>
    <g>
      <circle class="st3" cx="258.6" cy="236.7" r="133.8"/>
      <circle class="st8" cx="258.6" cy="236.7" r="94.6"/>
      <circle class="st4" cx="258.6" cy="236.7" r="86"/>
    </g>
  </g>
  <path class="st8" d="M336.3,282.2l161.8,203.8-240.5-3.5-242.8,3.5,58.3-61.8,182.9-189.1c.9-.9,2.5-.8,3.2.3l48.6,71.5,25.4-24.8c.9-.9,2.3-.8,3.1.2Z"/>
  <path class="st1" d="M257.4,156.1"/>
  <path class="st1" d="M498.4,485.6"/>
  <path class="st7" d="M490.4,486H24.5s120.7-126.3,120.8-126.4c27.9-25.9,79.7-82.9,110.7-114.8.9-1,2.5-.8,3.2.3l42,64.6-14.9,20c-1,1.2-.7,2.1,0,3.5s3-.1,4.2-1.4l42.6-40.4c.9-.9,2.3-.8,3.1.1,26.3,31,154.4,194.5,154.4,194.5Z"/>
  <path class="st5" d="M227.9,419.5"/>
  <path class="st6" d="M356.1,486c4.9,0-53.5-6.3-62.5-7-35.4-2.8-56.8-5.6-70.8-9.8-13.6-4.1-33.7-16.9-42.8-25.3-5.1-4.7-18.9-20.9-15.5-31.5,3.8-11.6,19.8-11.6,35.1-18.9,4.2-2,29.7-13.7,39.6-35.8,6-13.3,13.2-37.3,16.4-50.1.2-.8-.1-1.5-.8-1.5h-2.4c-.6,0-1.2.5-1.5,1.2-1.4,3.7-6,15.7-13.3,32.4-5.7,13.3-9.1,20-16,26.3-10.8,9.9-37.4,18.5-43.4,20-12.3,3-17.2,3-27.9,10-9.5,6.3-12.3,18.3-11.5,27.7,1.5,16.5,8.9,22.5,9.8,35.6,1.6,23.7-64.1,28.3-61.7,28.1l269.1-1.4Z"/>
  <path class="st0" d="M275.5,462.2"/>
</svg>