<?xml version="1.0" encoding="UTF-8"?><svg id="a" xmlns="http://www.w3.org/2000/svg" width="483.7" height="460.44" viewBox="0 0 483.7 460.44"><circle cx="243.64" cy="213.89" r="213.89" style="fill:#fff;"/><circle cx="243.91" cy="213.91" r="202.44" style="fill:#e2eefb;"/><circle cx="244.24" cy="209.82" r="143.16" style="fill:#fff;"/><circle cx="243.91" cy="209.74" r="133.85" style="fill:#7ebcf2;"/><circle cx="243.91" cy="209.74" r="94.56" style="fill:#fff;"/><circle cx="243.91" cy="209.74" r="85.96" style="fill:#1a80d9;"/><path d="M321.59,255.28l161.77,203.76-240.53-3.54L0,459.04l58.34-61.81,182.95-189.14c.92-.95,2.48-.82,3.22.28l48.56,71.49,25.43-24.78c.88-.86,2.32-.77,3.09.2Z" style="fill:#fff;"/><path d="M475.71,459.04H9.72s120.7-126.26,120.84-126.39c27.92-25.88,79.68-82.94,110.69-114.81.93-.96,2.51-.8,3.24.32l41.96,64.58-14.9,20.05c-.99,1.21-.69,2.08,0,3.47.8,1.6,3.02-.1,4.17-1.39l42.57-40.44c.86-.85,2.27-.79,3.05.13,26.25,30.98,154.39,194.48,154.39,194.48Z" style="fill:#333; fill-rule:evenodd;"/><path d="M341.38,459.03c4.94,0-53.46-6.3-62.54-7.03-35.39-2.81-56.78-5.62-70.77-9.84-13.57-4.09-33.74-16.86-42.79-25.29-5.05-4.71-18.94-20.9-15.46-31.47,3.81-11.57,19.82-11.57,35.06-18.93,4.2-2.03,29.73-13.67,39.64-35.76,5.97-13.31,13.15-37.29,16.4-50.08.2-.81-.13-1.46-.75-1.46h-2.44c-.55,0-1.22.55-1.47,1.22-1.42,3.72-6.05,15.66-13.26,32.44-5.7,13.27-9.15,19.99-16.01,26.3-10.78,9.92-37.39,18.52-43.45,19.99-12.25,2.97-17.19,2.97-27.89,9.99-9.52,6.25-12.34,18.27-11.49,27.65,1.51,16.52,8.94,22.46,9.84,35.58,1.64,23.73-64.06,28.26-61.72,28.1l269.1-1.41Z" style="fill:#fcfcfc; fill-rule:evenodd;"/></svg>